<svg xmlns="http://www.w3.org/2000/svg" style="isolation:isolate" viewBox="0 0 880 120">  <defs>    <clipPath id="a">      <path d="M0 0h880v120H0z"/>    </clipPath>  </defs>  <g clip-path="url(#a)">    <path fill="none" stroke="#C11F3E" stroke-miterlimit="2" stroke-width="1.896" d="M277.899 7.9h1.1v56.8h-1.1z" vector-effect="non-scaling-stroke"/>    <g fill="#585B5E">      <path d="M316.599 73.3c7.8 0 12.2 3.8 12.2 10.5 0 7-4.5 11-12.2 11h-7.1v9.3h-5.2V73.2h12.3v.1zm-7.1 16.9h6.9c4.8 0 7.5-2 7.5-6.2 0-4.1-2.7-6-7.5-6h-6.9v12.2zM355.899 92.5c0 7.1-5 11.9-12.2 11.9-7.3 0-12.3-4.9-12.3-11.9 0-7.1 5-11.9 12.3-11.9 7.3-.1 12.2 4.8 12.2 11.9zm-19.4 0c0 4.5 3 7.6 7.2 7.6s7.2-3.1 7.2-7.6-3-7.6-7.2-7.6-7.2 3.1-7.2 7.6zM382.399 104.2l-6-17.4-6 17.4h-5.2l-8.7-23.5h5.2l6.1 18.5 5.9-18.5h5.3l6 18.5 6-18.5h5.2l-8.6 23.5h-5.2zM419.499 94.4h-17.7c.8 3.6 3.6 5.9 7.3 5.9 2.6 0 4.9-1 6.6-2.7l2.7 2.9c-2.3 2.5-5.7 4-9.7 4-7.2 0-12-4.8-12-11.9 0-7.1 4.9-11.9 11.9-12 8.2-.1 11.6 5.3 10.9 13.8zm-4.4-3.7c-.2-3.8-2.7-6.1-6.5-6.1-3.7 0-6.3 2.3-6.9 6.1h13.4zM429.899 85.4c1.6-3.2 4.4-4.9 8.1-4.9v4.9c-4.7-.3-7.7 2.5-8.1 6.5v12.3h-5.1V80.7h5.1v4.7zM462.899 94.4h-17.7c.8 3.6 3.6 5.9 7.3 5.9 2.6 0 4.9-1 6.6-2.7l2.7 2.9c-2.3 2.5-5.7 4-9.7 4-7.2 0-12-4.8-12-11.9 0-7.1 4.9-11.9 11.9-12 8.2-.1 11.5 5.3 10.9 13.8zm-4.4-3.7c-.2-3.8-2.7-6.1-6.5-6.1-3.7 0-6.3 2.3-6.9 6.1h13.4zM490.599 104.2h-5.1v-4c-1.7 2.7-4.5 4.2-8.3 4.2-6.8 0-11.3-4.9-11.3-12.1 0-7.1 4.5-11.9 11.2-11.9 3.8 0 6.6 1.5 8.3 4.3V71.4h5.1v32.8h.1zm-5.1-11.7c0-4.5-3-7.7-7.2-7.7s-7.2 3.2-7.2 7.7 3 7.6 7.2 7.6c4.2.1 7.2-3.1 7.2-7.6zM534.399 92.5c0 7-4.4 11.8-11.1 11.8-3.8 0-6.6-1.5-8.3-4.2v4.1h-5.1V71.4h5.1v13.3c1.7-2.7 4.5-4.2 8.2-4.2 6.7 0 11.2 4.9 11.2 12zm-5.1-.1c0-4.4-3-7.6-7.2-7.6s-7.2 3.2-7.2 7.6c0 4.5 3 7.7 7.2 7.7s7.2-3.2 7.2-7.7zM547.999 107.4c-1.5 3.7-4.1 5.6-7.6 5.6-2.1 0-3.8-.6-5.4-2l2.2-3.9c1.1.8 2 1.1 3 1.1 1.5 0 2.8-.8 3.6-2.6l.8-1.8-9.7-23.1h5.3l7 17.8 6.5-17.8h5.1l-10.8 26.7zM594.899 76.3l-2.2 4.6c-3.4-2-6.7-2.9-9-2.9-3 0-5 1.1-5 3.2 0 6.8 16.7 3.1 16.6 14.3 0 5.5-4.9 8.9-11.7 8.9-4.9 0-9.4-2-12.6-4.9l2.3-4.5c3.2 2.9 7.2 4.5 10.5 4.5 3.6 0 5.8-1.4 5.8-3.8 0-6.9-16.7-3-16.7-14 0-5.3 4.5-8.6 11.3-8.6 3.9 0 7.8 1.3 10.7 3.2zM621.699 94.4h-17.7c.8 3.6 3.6 5.9 7.3 5.9 2.6 0 4.9-1 6.6-2.7l2.7 2.9c-2.3 2.5-5.7 4-9.7 4-7.2 0-12-4.8-12-11.9 0-7.1 4.9-11.9 11.9-12 8.2-.1 11.6 5.3 10.9 13.8zm-4.4-3.7c-.2-3.8-2.7-6.1-6.5-6.1-3.7 0-6.3 2.3-6.9 6.1h13.4zM631.499 104.2l-9.1-23.5h5.3l6.5 18.5 6.4-18.5h5.1l-9 23.5h-5.2zM669.099 94.4h-17.7c.8 3.6 3.6 5.9 7.3 5.9 2.6 0 4.9-1 6.6-2.7l2.7 2.9c-2.3 2.5-5.7 4-9.7 4-7.2 0-12-4.8-12-11.9 0-7.1 4.9-11.9 11.9-12 8.2-.1 11.5 5.3 10.9 13.8zm-4.4-3.7c-.2-3.8-2.7-6.1-6.5-6.1-3.7 0-6.3 2.3-6.9 6.1h13.4zM696.899 89.6v14.6h-5.1V91c0-3.5-2.1-5.7-5.7-5.7-3.9 0-6.3 2.7-6.7 6.4v12.5h-5.1V80.7h5.1v4.5c1.7-3.3 4.7-4.7 8.7-4.7 5.5 0 8.8 3.5 8.8 9.1zM728.799 73.3c6.4 0 10.4 2.9 10.4 7.7 0 3.5-2.1 6.1-5.4 6.9 4.1.7 6.6 3.7 6.6 7.8 0 5.3-4.3 8.5-11.3 8.5h-13.7V73.3h13.4zm-8.2 12.8h7.9c3.3 0 5.3-1.5 5.3-4.1 0-2.6-2-4-5.3-4h-7.9v8.1zm0 13.5h7.9c4.1 0 6.5-1.6 6.5-4.5 0-2.7-2.4-4.4-6.5-4.4h-7.9v8.9zM751.299 85.4c1.6-3.2 4.4-4.9 8.1-4.9v4.9c-4.7-.3-7.7 2.5-8.1 6.5v12.3h-5.1V80.7h5.1v4.7zM769.099 74c0 1.8-1.3 3-3 3s-3-1.3-3-3c0-1.8 1.3-3.1 3-3.1s3 1.3 3 3.1zm-5.5 30.2V80.7h5v23.5h-5zM798.499 104.2h-5.1v-4c-1.7 2.7-4.5 4.2-8.3 4.2-6.8 0-11.3-4.9-11.3-12.1 0-7.1 4.5-11.9 11.2-11.9 3.8 0 6.6 1.5 8.3 4.3V71.4h5.1v32.8h.1zm-5.1-11.7c0-4.5-3-7.7-7.2-7.7s-7.2 3.2-7.2 7.7 3 7.6 7.2 7.6c4.3.1 7.2-3.1 7.2-7.6zM827.399 101.9c0 6.8-4.8 11-12.2 11-3.7 0-6.9-1.1-9.8-3.1l2.2-3.7c2.2 1.6 4.5 2.6 7.4 2.6 4.5 0 7.4-2.6 7.4-6.7v-3c-1.6 2.6-4.2 4-7.8 4-6.4 0-10.6-4.6-10.6-11.3 0-6.6 4.2-11.1 10.4-11.2 3.6 0 6.3 1.4 7.9 4v-3.8h5v21.2h.1zm-5-10.1c0-4.2-2.8-7.2-6.8-7.2s-6.8 3-6.8 7.2 2.8 7.2 6.8 7.2c4 .1 6.8-2.9 6.8-7.2zM855.199 94.4h-17.7c.8 3.6 3.6 5.9 7.3 5.9 2.6 0 4.9-1 6.6-2.7l2.7 2.9c-2.3 2.5-5.7 4-9.7 4-7.2 0-12-4.8-12-11.9 0-7.1 4.9-11.9 11.9-12 8.1-.1 11.5 5.3 10.9 13.8zm-4.5-3.7c-.2-3.8-2.7-6.1-6.5-6.1-3.7 0-6.3 2.3-6.9 6.1h13.4zM875.699 82.9l-1.9 3.8c-2.1-1.3-4.7-2.1-6.8-2.1-2 0-3.4.7-3.4 2.3 0 4.3 12.5 2 12.4 10.5 0 4.8-4.3 7-9 7-3.4 0-7.1-1.1-9.4-3.3l1.8-3.6c2 1.8 5.3 2.9 7.9 2.9 2.2 0 3.8-.8 3.8-2.5 0-4.8-12.4-2.1-12.3-10.6 0-4.8 4.1-6.8 8.7-6.8 2.9 0 6.1.9 8.2 2.4z"/>    </g>    <g fill="#616365">      <path d="M408.499 36c0 3-.6 5.6-1.7 7.8s-2.6 4-4.4 5.4c-1.8 1.4-3.9 2.4-6.2 3.1-2.3.7-4.6 1-7 1h-12.8V18.9h12.4c2.4 0 4.8.3 7.2.9 2.4.6 4.5 1.5 6.3 2.8 1.8 1.3 3.3 3.1 4.5 5.3 1.1 2.2 1.7 4.9 1.7 8.1zm-8.7 0c0-1.9-.3-3.6-.9-4.8-.6-1.3-1.5-2.3-2.5-3.1-1.1-.8-2.2-1.3-3.6-1.6-1.3-.3-2.7-.5-4.2-.5h-4.1v20.1h3.9c1.5 0 2.9-.2 4.3-.5s2.6-.9 3.6-1.7c1.1-.8 1.9-1.8 2.5-3.1.7-1.3 1-2.9 1-4.8zM413.199 32.4c1.4-1.4 3.1-2.4 5-3.1 1.9-.7 3.8-1 5.8-1s3.8.3 5.2.8c1.4.5 2.6 1.3 3.4 2.3.9 1.1 1.5 2.4 1.9 4 .4 1.6.6 3.5.6 5.7v12.2h-7.3v-2.6h-.1c-.6 1-1.5 1.8-2.8 2.3-1.2.5-2.6.8-4.1.8-1 0-2-.1-3-.4-1-.3-2-.7-2.8-1.3-.9-.6-1.6-1.4-2.1-2.3-.6-1-.8-2.2-.8-3.6 0-1.7.5-3.2 1.4-4.2 1-1.1 2.2-1.9 3.7-2.5 1.5-.6 3.2-1 5-1.2 1.8-.2 3.6-.3 5.4-.3v-.4c0-1.2-.4-2.1-1.3-2.6-.8-.6-1.9-.8-3.1-.8-1.1 0-2.2.2-3.3.7-1.1.5-1.9 1.1-2.7 1.7l-4-4.2zm14.6 10.4h-1c-.9 0-1.8 0-2.6.1-.9.1-1.7.2-2.4.5-.7.2-1.3.6-1.7 1-.5.4-.7 1-.7 1.7 0 .5.1.8.3 1.2.2.3.5.6.8.8.3.2.7.3 1.1.4.4.1.8.1 1.2.1 1.6 0 2.9-.4 3.7-1.3.9-.9 1.3-2.1 1.3-3.6v-.9zM449.199 35v9.3c0 1.1.2 2 .7 2.6.4.6 1.2.9 2.4.9.4 0 .8 0 1.2-.1.4-.1.8-.2 1.1-.3l.1 5.8c-.6.2-1.2.4-2.1.5-.8.1-1.7.2-2.5.2-1.6 0-3-.2-4.1-.6-1.1-.4-2-1-2.6-1.8-.7-.8-1.1-1.7-1.4-2.7-.3-1.1-.4-2.2-.4-3.5V35.1h-3.9v-5.9h3.8v-6.4h7.8v6.4h5.7v5.9l-5.8-.1zM458.199 32.4c1.4-1.4 3.1-2.4 5-3.1 1.9-.7 3.8-1 5.8-1s3.8.3 5.2.8c1.4.5 2.6 1.3 3.4 2.3.9 1.1 1.5 2.4 1.9 4 .4 1.6.6 3.5.6 5.7v12.2h-7.3v-2.6h-.1c-.6 1-1.5 1.8-2.8 2.3-1.2.5-2.6.8-4.1.8-1 0-2-.1-3-.4-1-.3-2-.7-2.8-1.3-.9-.6-1.6-1.4-2.1-2.3-.6-1-.8-2.2-.8-3.6 0-1.7.5-3.2 1.4-4.2 1-1.1 2.2-1.9 3.7-2.5 1.5-.6 3.2-1 5-1.2 1.8-.2 3.6-.3 5.4-.3v-.4c0-1.2-.4-2.1-1.3-2.6-.8-.6-1.9-.8-3.1-.8-1.1 0-2.2.2-3.3.7-1.1.5-2 1.1-2.7 1.7l-4-4.2zm14.7 10.4h-1c-.9 0-1.8 0-2.6.1-.9.1-1.7.2-2.4.5-.7.2-1.3.6-1.7 1-.5.4-.7 1-.7 1.7 0 .5.1.8.3 1.2.2.3.5.6.8.8.3.2.7.3 1.1.4.4.1.8.1 1.2.1 1.6 0 2.9-.4 3.7-1.3.9-.9 1.3-2.1 1.3-3.6v-.9zM305.599 18.9h11.9c1.3 0 2.6.1 3.9.4 1.3.3 2.5.8 3.5 1.5s1.8 1.6 2.5 2.7c.6 1.1.9 2.5.9 4.1 0 1.9-.6 3.5-1.7 4.8-1.1 1.3-2.6 2.2-4.4 2.7v.1c1.1.1 2.1.4 3.1.9.9.4 1.7 1 2.4 1.7s1.2 1.6 1.6 2.5c.4 1 .6 2.1.6 3.3 0 1.7-.3 3.1-1 4.3-.7 1.2-1.6 2.2-2.8 3-1.2.8-2.5 1.4-4.1 1.8-1.6.4-3.2.6-5 .6h-11.3V18.9h-.1zm4.8 14.5h6.3c.9 0 1.8-.1 2.6-.3.8-.2 1.5-.5 2.2-1 .6-.4 1.1-1 1.5-1.7.4-.7.5-1.5.5-2.4 0-1.8-.7-3.2-2-4-1.4-.8-3.2-1.2-5.5-1.2h-5.5v10.6h-.1zm0 15.8h6c1 0 2-.1 3-.3 1-.2 1.9-.5 2.8-.9.8-.5 1.5-1.1 2-1.8.5-.8.8-1.7.8-2.9 0-2-.7-3.5-2.1-4.4-1.4-.9-3.4-1.4-6-1.4h-6.5v11.7zM341.899 22c0 .8-.3 1.5-.9 2.1-.6.6-1.3.8-2.1.8s-1.5-.3-2.1-.9c-.6-.6-.9-1.3-.9-2.1s.3-1.5.9-2.1c.6-.6 1.3-.9 2.1-.9s1.5.3 2.1.9c.6.6.9 1.3.9 2.2zm-.8 31.3h-4.6v-23h4.6v23zM372.399 41.7c0 1.8-.3 3.4-.9 4.9-.6 1.5-1.5 2.8-2.6 3.9s-2.4 1.9-4 2.5c-1.5.6-3.2.9-4.9.9-1.7 0-3.4-.3-4.9-.9-1.5-.6-2.8-1.4-3.9-2.5s-2-2.4-2.6-3.9c-.6-1.5-.9-3.1-.9-4.9 0-1.8.3-3.4.9-4.9.6-1.5 1.5-2.7 2.6-3.8 1.1-1.1 2.4-1.9 3.9-2.5 1.5-.6 3.2-.9 4.9-.9 1.7 0 3.4.3 4.9.9 1.5.6 2.8 1.4 4 2.5 1.1 1.1 2 2.3 2.6 3.8.6 1.5.9 3.2.9 4.9zm-4.7.1c0-1.1-.2-2.1-.5-3.1s-.8-1.9-1.5-2.6c-.6-.8-1.5-1.4-2.4-1.8-1-.5-2.1-.7-3.3-.7-1.2 0-2.3.2-3.3.7-1 .5-1.8 1.1-2.4 1.8-.6.8-1.1 1.6-1.5 2.6-.3 1-.5 2.1-.5 3.1 0 1.1.2 2.1.5 3.1s.8 1.9 1.5 2.7c.6.8 1.5 1.4 2.4 1.8 1 .5 2.1.7 3.3.7 1.2 0 2.3-.2 3.3-.7 1-.5 1.8-1.1 2.4-1.8.6-.8 1.1-1.7 1.5-2.7.3-1 .5-2 .5-3.1z"/>    </g>    <g fill="#C11F3E">      <path d="M556.199 39.7h6.4l-3.2-10.1-3.2 10.1z"/>      <path d="M490.599 7.9v55.8h283.1l22.8-27.9-22.8-27.9h-283.1zm35.9 45.7c-8.8 0-15.7-6.8-15.7-17.5v-.6c0-10.7 7-17.6 16-17.6 5.4 0 9.1 2.1 11.9 5.4l-5.7 6.1c-1.5-1.8-3.4-3.3-6.1-3.3-4 0-7.1 3.6-7.1 9.5v.2c0 6.2 3.1 9.6 7.1 9.6 3 0 4.7-1.6 6.3-3.4l5.6 5.7c-2.6 3.5-6.5 5.9-12.3 5.9zm40.3-.6l-2-6.2h-10.9l-2 6.2h-9.1l12.1-34.7h9l12.2 34.7h-9.3zm36-26.5h-8.6V53h-8.9V26.5h-8.5v-8h25.9l.1 8zm24.6 26.5l-2-6.2h-10.9l-2 6.2h-9.1l12.1-34.7h9l12.2 34.7h-9.3zm37.7 0h-22.4V18.5h8.9V45h13.6l-.1 8zm18.6-13v13h-8.9V40.1l-11.1-21.6h9.8l5.8 12.5 5.8-12.5h9.7l-11.1 21.5zm39.4 2.7c0 6.7-5.2 10.9-12.6 10.9-5.1 0-10-1.6-14.1-5.1l4.7-6.5c2.8 2.3 6 3.9 9.4 3.9 2.4 0 3.6-1 3.6-2.5 0-1.4-1-2.2-5.1-3.7-6.5-2.2-11.1-4.6-11.1-10.9v-.1c0-6.3 4.8-10.7 12.3-10.7 4.6 0 8.7 1.3 12.3 4.2l-4.5 6.6c-2.4-1.8-5.2-3.2-8-3.2-2 0-3.2 1-3.2 2.3 0 1.5 1.1 2.3 5.5 3.9 6.7 2.2 10.8 4.9 10.8 10.9zm30.4-16.2h-8.5V53h-8.9V26.5h-8.5v-8h25.9v8z"/>      <path d="M616.799 39.7h6.4l-3.2-10.1-3.2 10.1z"/>      <path d="M490.599 7.9v55.8h283.1l22.8-27.9-22.8-27.9h-283.1zm35.9 45.7c-8.8 0-15.7-6.8-15.7-17.5v-.6c0-10.7 7-17.6 16-17.6 5.4 0 9.1 2.1 11.9 5.4l-5.7 6.1c-1.5-1.8-3.4-3.3-6.1-3.3-4 0-7.1 3.6-7.1 9.5v.2c0 6.2 3.1 9.6 7.1 9.6 3 0 4.7-1.6 6.3-3.4l5.6 5.7c-2.6 3.5-6.5 5.9-12.3 5.9zm40.3-.6l-2-6.2h-10.9l-2 6.2h-9.1l12.1-34.7h9l12.2 34.7h-9.3zm36-26.5h-8.6V53h-8.9V26.5h-8.5v-8h25.9l.1 8zm24.6 26.5l-2-6.2h-10.9l-2 6.2h-9.1l12.1-34.7h9l12.2 34.7h-9.3zm37.7 0h-22.4V18.5h8.9V45h13.6l-.1 8zm18.6-13v13h-8.9V40.1l-11.1-21.6h9.8l5.8 12.5 5.8-12.5h9.7l-11.1 21.5zm39.4 2.7c0 6.7-5.2 10.9-12.6 10.9-5.1 0-10-1.6-14.1-5.1l4.7-6.5c2.8 2.3 6 3.9 9.4 3.9 2.4 0 3.6-1 3.6-2.5 0-1.4-1-2.2-5.1-3.7-6.5-2.2-11.1-4.6-11.1-10.9v-.1c0-6.3 4.8-10.7 12.3-10.7 4.6 0 8.7 1.3 12.3 4.2l-4.5 6.6c-2.4-1.8-5.2-3.2-8-3.2-2 0-3.2 1-3.2 2.3 0 1.5 1.1 2.3 5.5 3.9 6.7 2.2 10.8 4.9 10.8 10.9zm30.4-16.2h-8.5V53h-8.9V26.5h-8.5v-8h25.9v8z"/>    </g>    <path fill="#616365" d="M70.799 23.6v25.3h-4.4V37.5h-11.5v11.4h-4.4V23.6h4.4v10.1h11.5V23.6h4.4zm-24.8 25.3h-4.4V23.6h4.4v25.3zm-8.8 0h-4.7l-11.5-18.6h-.1v18.6h-4.2V23.6h4.7l11.6 18.7h.1V23.6h4.1v25.3zm49.3-12.7l-15.7-28.3h-57.8c-2.9 0-5.2 2.3-5.2 5.2v46.3c0 2.9 2.3 5.2 5.2 5.2h57.7l15.8-28.4z"/>    <path fill="#616365" d="M74.699 64.6l15.7-28.4-15.7-28.3h3.9c2.1 0 4.8 1.5 5.8 3.4l13.8 24.9-13.8 25c-1 1.9-3.6 3.4-5.8 3.4h-3.9z"/>    <path fill="#C11F3E" d="M74.699 64.6l15.7-28.4-15.7-28.3h3.9c2.1 0 4.8 1.5 5.8 3.4l13.8 24.9-13.8 25c-1 1.9-3.6 3.4-5.8 3.4h-3.9z"/>    <path fill="#616365" d="M231.199 47.5c0-1.2.9-2.2 2.1-2.2 1.2 0 2 1 2 2.2h-4.1zm6 1.2c.3-2.4-1.3-4.8-3.8-4.8-2.4 0-3.9 2-3.9 4.3 0 2.5 1.4 4.3 4 4.3 1.8 0 3.3-1 3.7-2.8h-1.7c-.3.9-.9 1.4-2 1.4-1.5 0-2.2-1.1-2.2-2.4h5.9zm-13.2-3.2h1.4v4.8c0 1.4.4 2.1 2.3 2.1.4 0 .8-.1 1.2-.1v-1.4c-.2.1-.5.1-.8.1-.8 0-.9-.4-.9-1.1v-4.4h1.6v-1.3h-1.6v-2.4h-1.8v2.4h-1.4v1.3zm-.7-1.3h-1.8v4.7c0 1.3-.5 2.2-2 2.2-1 0-1.6-.5-1.6-2v-5h-1.8v5.2c0 2.1.9 3.2 3 3.2.9 0 1.9-.5 2.3-1.4v1.1h1.8v-8h.1zm-13 1.3h1.4v4.8c0 1.4.4 2.1 2.2 2.1.4 0 .8-.1 1.2-.1v-1.4c-.2.1-.5.1-.8.1-.8 0-.9-.4-.9-1.1v-4.4h1.6v-1.3h-1.6v-2.4h-1.8v2.4h-1.4l.1 1.3zm-2.6-2.7h1.8v-1.7h-1.8v1.7zm0 9.5h1.8v-8.1h-1.8v8.1zm-5.8-6.8h1.4v4.8c0 1.4.4 2.1 2.2 2.1.4 0 .8-.1 1.2-.1v-1.4c-.3.1-.5.1-.8.1-.8 0-.9-.4-.9-1.1v-4.4h1.6v-1.3h-1.6v-2.4h-1.8v2.4h-1.4l.1 1.3zm-7.6 4.2c0 1.9 1.6 2.8 3.6 2.8 1.7 0 3.6-.7 3.6-2.6 0-1.6-1.3-2.1-2.6-2.4-1.3-.3-2.6-.4-2.6-1.3 0-.7 1-.8 1.5-.8.8 0 1.5.2 1.7 1.1h1.9c-.2-1.8-1.7-2.5-3.4-2.5-1.5 0-3.4.6-3.4 2.3 0 1.7 1.3 2.1 2.6 2.4 1.3.3 2.6.4 2.7 1.4 0 .9-1.1 1.1-1.8 1.1-1 0-1.7-.4-1.8-1.4h-2v-.1zm-8.3 2.6h1.8v-4.8c0-1.2.8-2.1 2-2.1 1.1 0 1.6.6 1.6 1.8v5.1h1.8v-5.6c0-1.8-1.1-2.8-2.9-2.8-1.1 0-2 .6-2.5 1.4v-1.2h-1.7v8.2h-.1zm-3.8 0h2V41.1h-2v11.2zm-6-11.2h-1.8v4.2c-.6-.9-1.7-1.3-2.7-1.3-1.8 0-3.5 1.3-3.5 4.2 0 2.4 1.2 4.3 3.8 4.3 1 0 2-.4 2.5-1.3v1.1h1.7V41.1zm-6.3 7.2c0-1.5.6-3 2.3-3 1.4 0 2.3 1.1 2.3 2.9 0 1.4-.7 2.9-2.3 2.9-1.6 0-2.3-1.4-2.3-2.8zm-6.7 4.2c2.6 0 4.1-1.8 4.1-4.3s-1.5-4.3-4.1-4.3c-2.6 0-4.1 1.8-4.1 4.3s1.4 4.3 4.1 4.3zm0-1.4c-1.6 0-2.3-1.5-2.3-2.9s.7-2.9 2.3-2.9c1.6 0 2.3 1.5 2.3 2.9 0 1.5-.7 2.9-2.3 2.9zm-9.1 1.4c2.6 0 4.1-1.8 4.1-4.3s-1.5-4.3-4.1-4.3c-2.6 0-4.1 1.8-4.1 4.3s1.5 4.3 4.1 4.3zm0-1.4c-1.6 0-2.3-1.5-2.3-2.9s.7-2.9 2.3-2.9c1.6 0 2.3 1.5 2.3 2.9 0 1.5-.7 2.9-2.3 2.9zm-7.2 1.2h1.8V41.1h-1.8v11.2zm-8.6-9.6h3.2c1.1 0 1.7.4 1.7 1.5 0 1-.7 1.6-1.7 1.6h-3.2v-3.1zm-2 9.6h5.2c2.9 0 4.1-1.4 4.1-3.1 0-1.5-.7-2.6-2.1-2.9 1-.4 1.6-1.3 1.6-2.4 0-1.9-1.3-2.8-3.3-2.8h-5.5v11.2zm2-5.1h3.5c1.2 0 1.9.6 1.9 1.7s-.7 1.8-1.9 1.8h-3.5v-3.5zm-8-6.1h-1.8v4.2c-.5-.9-1.7-1.3-2.7-1.3-1.8 0-3.5 1.3-3.5 4.2 0 2.4 1.2 4.3 3.8 4.3 1 0 2-.4 2.5-1.3v1.1h1.7V41.1zm-6.3 7.2c0-1.5.6-3 2.3-3 1.4 0 2.3 1.1 2.3 2.9 0 1.4-.7 2.9-2.3 2.9-1.6 0-2.3-1.4-2.3-2.8zm-10.1 4h1.8v-4.8c0-1.2.8-2.1 2-2.1 1.1 0 1.6.6 1.6 1.8v5.1h1.8v-5.6c0-1.8-1.1-2.8-2.9-2.8-1.1 0-2 .6-2.5 1.4v-1.2h-1.7v8.2h-.1zm-1.7-6c0-1.7-1.7-2.4-3.3-2.4-1.8 0-3.6.6-3.7 2.7h1.8c.1-.9.8-1.3 1.8-1.3.7 0 1.7.2 1.7 1.1 0 1.1-1.1.9-2.4 1.2-1.5.2-3.1.5-3.1 2.5 0 1.6 1.3 2.4 2.8 2.4 1 0 2.1-.3 2.8-1 .1.7.7 1 1.4 1 .3 0 .9-.1 1.1-.2v-1.2h-.4c-.3 0-.4-.2-.4-.6v-4.2h-.1zm-1.8 3.3c0 1.1-1.2 1.5-2 1.5-.6 0-1.7-.2-1.7-1 0-.9.7-1.2 1.5-1.4.8-.1 1.7-.1 2.2-.5v1.4zM249.199 32.4h1.1c0 .7-.3 1.4-1 1.5v1c1.2-.3 2.1-1.2 2.1-2.5v-2.1h-2.2v2.1zm-1.6-8.2h-1.8v1.1c-.5-.9-1.4-1.3-2.4-1.3-2.3 0-3.7 1.9-3.7 4.1 0 2.3 1.1 4.3 3.7 4.3 1 0 1.9-.5 2.4-1.4v1.2c0 1.3-.6 2.1-2.1 2.1-.9 0-1.7-.2-2-1.2h-1.8c.2 1.9 2 2.5 3.6 2.5 2.6 0 4-1.2 4-3.7l.1-7.7zm-4 6.7c-1.5 0-2.1-1.4-2.1-2.7 0-1.4.5-2.8 2.1-2.8s2.2 1.3 2.2 2.7c0 1.4-.6 2.8-2.2 2.8zm-12.3 1.5h1.8v-4.8c0-1.2.8-2.1 2-2.1 1.1 0 1.6.6 1.6 1.8v5.1h1.8v-5.6c0-1.8-1.1-2.8-2.9-2.8-1.1 0-2 .6-2.5 1.4v-1.2h-1.7l-.1 8.2zm-1.6-8.2h-1.8v4.7c0 1.3-.5 2.2-2 2.2-1 0-1.6-.5-1.6-2v-5h-1.8v5.2c0 2.1.9 3.2 3 3.2.9 0 1.9-.5 2.3-1.4v1.1h1.8v-8h.1zm-15.7 8.2h7.7v-1.7h-5.7v-9.5h-2v11.2zm-8.3 0h1.1c0 .7-.3 1.4-1 1.5v1c1.2-.3 2.1-1.2 2.1-2.5v-2.1h-2.2v2.1zm-5.9-6.8h1.4v4.8c0 1.4.4 2.1 2.2 2.1.4 0 .8-.1 1.2-.1V31c-.2.1-.5.1-.8.1-.8 0-.9-.4-.9-1.1v-4.4h1.6v-1.3h-1.6v-2.4h-1.7v2.4h-1.4v1.3zm-4.4 6.8h1.8v-3.9c0-1.8 1-2.8 2.2-2.8.2 0 .5 0 .8.1v-1.7h-.7c-1.1 0-2.2.9-2.4 1.8v-1.6h-1.7v8.1zm-1.7-6c0-1.7-1.7-2.4-3.3-2.4-1.8 0-3.6.6-3.7 2.7h1.8c.1-.9.8-1.3 1.8-1.3.7 0 1.7.2 1.7 1.1 0 1.1-1.2.9-2.4 1.2-1.5.2-3.1.5-3.1 2.5 0 1.6 1.3 2.4 2.8 2.4 1 0 2.1-.3 2.8-1 .1.7.7 1 1.4 1 .3 0 .9-.1 1.1-.2v-1.2h-.4c-.3 0-.4-.2-.4-.6v-4.2h-.1zm-1.8 3.2c0 1.1-1.2 1.5-2 1.5-.6 0-1.7-.2-1.7-1 0-.9.7-1.2 1.5-1.4.8-.1 1.7-.1 2.2-.5v1.4zm-12.1-2c0-1.2.9-2.2 2.1-2.2 1.2 0 2 1 2 2.2h-4.1zm6 1.2c.3-2.4-1.3-4.8-3.8-4.8-2.4 0-3.9 2-3.9 4.3 0 2.5 1.4 4.3 4 4.3 1.8 0 3.3-1 3.7-2.8h-1.7c-.3.9-.9 1.4-2 1.4-1.5 0-2.2-1.1-2.2-2.4h5.9zm-18.3 3.6h2v-5.1h5.1v5.1h2V21.2h-2v4.5h-5.1v-4.5h-2v11.2zm-7.7 0h1.8V21.2h-1.8v11.2zm-1.7-6c0-1.7-1.7-2.4-3.3-2.4-1.8 0-3.6.6-3.7 2.7h1.8c.1-.9.8-1.3 1.8-1.3.7 0 1.7.2 1.7 1.1 0 1.1-1.2.9-2.4 1.2-1.5.2-3.1.5-3.1 2.5 0 1.6 1.3 2.4 2.8 2.4 1 0 2.1-.3 2.8-1 .1.7.7 1 1.4 1 .3 0 .9-.1 1.1-.2v-1.2h-.4c-.3 0-.4-.2-.4-.6v-4.2h-.1zm-1.8 3.2c0 1.1-1.2 1.5-2 1.5-.6 0-1.7-.2-1.7-1 0-.9.7-1.2 1.5-1.4.8-.1 1.7-.1 2.2-.5v1.4zm-13.8 2.8h1.8v-4.8c0-1.2.8-2.1 2-2.1 1.1 0 1.6.6 1.6 1.8v5.1h1.8v-5.6c0-1.8-1.1-2.8-2.9-2.8-1.1 0-2 .6-2.5 1.4v-1.2h-1.7v8.2h-.1zm-5.3.2c2.6 0 4.1-1.8 4.1-4.3s-1.5-4.3-4.1-4.3c-2.6 0-4.1 1.8-4.1 4.3-.1 2.5 1.4 4.3 4.1 4.3zm0-1.4c-1.6 0-2.3-1.5-2.3-2.9s.7-2.9 2.3-2.9c1.6 0 2.3 1.5 2.3 2.9s-.7 2.9-2.3 2.9zm-7.2-8.4h1.8v-1.7h-1.8v1.7zm0 9.6h1.8v-8.1h-1.8v8.1zm-5.9-6.8h1.4v4.8c0 1.4.4 2.1 2.3 2.1.4 0 .8-.1 1.2-.1V31c-.3.1-.5.1-.8.1-.8 0-.9-.4-.9-1.1v-4.4h1.6v-1.3h-1.6v-2.4h-1.8v2.4h-1.4v1.3zm-.8.8c0-1.7-1.7-2.4-3.3-2.4-1.8 0-3.6.6-3.7 2.7h1.8c.1-.9.8-1.3 1.8-1.3.7 0 1.7.2 1.7 1.1 0 1.1-1.1.9-2.4 1.2-1.5.2-3.1.5-3.1 2.5 0 1.6 1.3 2.4 2.8 2.4 1 0 2.1-.3 2.8-1 .1.7.7 1 1.4 1 .3 0 .9-.1 1.1-.2v-1.2h-.4c-.3 0-.4-.2-.4-.6v-4.2h-.1zm-1.8 3.2c0 1.1-1.2 1.5-2 1.5-.6 0-1.7-.2-1.7-1 0-.9.7-1.2 1.5-1.4.8-.1 1.7-.1 2.2-.5v1.4zm-15.9 2.8h1.9v-8.3l5.1 8.3h2.1V21.2h-1.9v8.3l-5.1-8.3h-2.1v11.2z"/>  </g></svg>